<svg width="15" height="15" viewBox="0 0 15 15" fill="none" xmlns="http://www.w3.org/2000/svg">
<g clip-path="url(#clip0_1_51)">
<path fill-rule="evenodd" clip-rule="evenodd" d="M7.94187 9.81688C7.82467 9.93404 7.66573 9.99987 7.5 9.99987C7.33427 9.99987 7.17533 9.93404 7.05813 9.81688L3.5225 6.28125C3.46281 6.2236 3.41519 6.15463 3.38244 6.07838C3.34968 6.00213 3.33244 5.92011 3.33172 5.83713C3.331 5.75414 3.34681 5.67184 3.37824 5.59503C3.40966 5.51822 3.45607 5.44844 3.51475 5.38975C3.57344 5.33107 3.64322 5.28466 3.72003 5.25324C3.79684 5.22181 3.87914 5.206 3.96213 5.20672C4.04511 5.20744 4.12713 5.22468 4.20338 5.25744C4.27963 5.29019 4.3486 5.33781 4.40625 5.3975L7.5 8.49125L10.5938 5.3975C10.7116 5.28365 10.8695 5.22066 11.0334 5.22208C11.1972 5.2235 11.354 5.28923 11.4699 5.40511C11.5858 5.52099 11.6515 5.67775 11.6529 5.84162C11.6543 6.0055 11.5913 6.16337 11.4775 6.28125L7.94187 9.81688Z" fill="#333333"/>
</g>
<defs>
<clipPath id="clip0_1_51">
<rect width="15" height="15" fill="white"/>
</clipPath>
</defs>
</svg>
