<svg width="30" height="30" viewBox="0 0 30 30" fill="none" xmlns="http://www.w3.org/2000/svg">
<g clip-path="url(#clip0_1_39)">
<path fill-rule="evenodd" clip-rule="evenodd" d="M20.69 27.6662C18.89 27.6 13.7887 26.895 8.44625 21.5537C3.105 16.2112 2.40125 11.1112 2.33375 9.31C2.23375 6.565 4.33625 3.89875 6.765 2.8575C7.05747 2.73121 7.37775 2.68312 7.69441 2.71797C8.01107 2.75281 8.31324 2.86938 8.57125 3.05625C10.5712 4.51375 11.9513 6.71875 13.1362 8.4525C13.397 8.83341 13.5085 9.29693 13.4494 9.75474C13.3904 10.2126 13.1651 10.6327 12.8162 10.935L10.3775 12.7462C10.2597 12.8313 10.1767 12.9563 10.1441 13.0979C10.1114 13.2395 10.1313 13.3882 10.2 13.5162C10.7525 14.52 11.735 16.015 12.86 17.14C13.985 18.265 15.5513 19.3125 16.625 19.9275C16.7596 20.0031 16.9181 20.0242 17.0678 19.9865C17.2175 19.9489 17.3472 19.8553 17.43 19.725L19.0175 17.3087C19.3094 16.9211 19.7399 16.6613 20.219 16.584C20.698 16.5066 21.1884 16.6176 21.5875 16.8937C23.3463 18.1112 25.3988 19.4675 26.9012 21.3913C27.1033 21.6511 27.2318 21.9605 27.2734 22.287C27.3149 22.6136 27.268 22.9453 27.1375 23.2475C26.0912 25.6887 23.4438 27.7675 20.69 27.6662Z" fill="#333333"/>
</g>
<defs>
<clipPath id="clip0_1_39">
<rect width="30" height="30" fill="white"/>
</clipPath>
</defs>
</svg>
