<svg width="20" height="29" viewBox="0 0 20 29" fill="none" xmlns="http://www.w3.org/2000/svg">
<path d="M10 0C11.4127 0 12.7937 0.425205 13.9684 1.22185C15.143 2.01849 16.0585 3.15078 16.5991 4.47554C17.1398 5.80031 17.2812 7.25804 17.0056 8.6644C16.73 10.0708 16.0497 11.3626 15.0508 12.3765C14.0518 13.3905 12.7791 14.081 11.3935 14.3607C10.0079 14.6404 8.57173 14.4969 7.26655 13.9481C5.96136 13.3994 4.8458 12.4701 4.06093 11.2779C3.27606 10.0856 2.85714 8.68392 2.85714 7.25L2.86429 6.93535C2.94417 5.06884 3.73087 3.30568 5.06032 2.01356C6.38977 0.721435 8.15934 0.000107942 10 0ZM12.8571 17.4C14.7515 17.4 16.5684 18.1638 17.9079 19.5235C19.2475 20.8831 20 22.7272 20 24.65V26.1C20 26.8691 19.699 27.6068 19.1632 28.1506C18.6273 28.6945 17.9006 29 17.1429 29H2.85714C2.09938 29 1.37266 28.6945 0.836838 28.1506C0.301019 27.6068 0 26.8691 0 26.1V24.65C0 22.7272 0.752549 20.8831 2.09209 19.5235C3.43164 18.1638 5.24845 17.4 7.14286 17.4H12.8571Z" fill="#333333"/>
</svg>
